<?xml version="1.0" encoding="utf-8"?>
<!-- Generator: Adobe Illustrator 23.0.4, SVG Export Plug-In . SVG Version: 6.00 Build 0)  -->
<svg version="1.1" id="Layer_1" xmlns="http://www.w3.org/2000/svg" xmlns:xlink="http://www.w3.org/1999/xlink" x="0px" y="0px"
	 viewBox="0 0 503.9 273.2" style="enable-background:new 0 0 503.9 273.2;" xml:space="preserve">
<style type="text/css">
	.st0{fill:#1E384B;}
	.st1{fill:#1E394C;}
</style>
<path class="st0" d="M65.4,179.4c18.1,5.4,31.3,22.1,31.3,42v44H76.3v-7v-37c0-12.9-10.5-23.4-23.4-23.4h-2.3
	c-12.9,0-23.4,10.5-23.4,23.4v37v7H6.9v-44c0-19.8,13.2-36.6,31.3-42C38.2,179.4,49.8,175.2,65.4,179.4z"/>
<path class="st0" d="M488.9,223.6l-40.2-21.7c0,0,4-7.6,16.1-7.6c12.8,0,16.1,7.6,16.1,7.6h19c-2.3-14.4-17.2-24.6-35.2-24.6
	c-21.1,0-35.5,10.7-35.5,24.6c0,11.6,11,16.9,11,16.9l40.2,21.7c0,0-4,7.6-16.1,7.6c-12.8,0-16.1-7.6-16.1-7.6h-19
	c2.3,14.4,17.2,24.6,35.2,24.6c21.1,0,35.5-10.7,35.5-24.6C499.8,228.9,488.9,223.6,488.9,223.6"/>
<path class="st0" d="M392.4,265.1h-0.1c-6.3,0-11.9-4.1-13.8-10.2l-12.9-41.4l-13.2,41.4c-1.9,6-7.5,10.1-13.8,10.1l0,0
	c-6.4,0-12-4.2-13.8-10.2l-22.7-74.3h19.8l17.8,55.2l13-45.6c1.7-5.8,7-9.9,13.1-9.9l0,0c6.1,0,11.4,4,13.1,9.8l13.1,45.8l18.1-55.3
	h19.3l-23,74.3C404.3,261,398.7,265.1,392.4,265.1z"/>
<path class="st0" d="M258.1,178c-24.2,0-43.8,19.6-43.8,43.8s19.6,43.8,43.8,43.8c24.2,0,43.8-19.6,43.8-43.8S282.3,178,258.1,178z
	 M258.1,246.8c-13.8,0-25-11.2-25-25s11.2-25,25-25c13.8,0,25,11.2,25,25S271.9,246.8,258.1,246.8z"/>
<rect x="187.7" y="152.2" class="st0" width="20.4" height="113.1"/>
<path class="st0" d="M151.2,172.5h27.7v-20.4h-27.7c-24.2,0-43.8,19.6-43.8,43.8v44h0v25.5h20.4v-25.5h0v-7v-14.3h38.8v-17.5h-38.8
	v-5.3C127.8,183,138.3,172.5,151.2,172.5z"/>
<g>
	<circle class="st1" cx="372" cy="38.7" r="14.1"/>
	<circle class="st1" cx="346.6" cy="20.2" r="9.7"/>
	<circle class="st1" cx="346.6" cy="41.1" r="5.3"/>
	<circle class="st1" cx="328.3" cy="26.8" r="4.1"/>
	<circle class="st1" cx="309.8" cy="17.1" r="9.7"/>
	<circle class="st1" cx="328.3" cy="12.7" r="5.3"/>
	<circle class="st1" cx="392.7" cy="51.7" r="5.3"/>
	<circle class="st1" cx="291.1" cy="15.8" r="5.3"/>
	<circle class="st1" cx="402.4" cy="68.1" r="9.7"/>
	<circle class="st1" cx="285.8" cy="29.9" r="5.3"/>
	<circle class="st1" cx="415.9" cy="81" r="4.1"/>
	<circle class="st1" cx="332.4" cy="38.7" r="5.3"/>
	<circle class="st1" cx="315.8" cy="38.7" r="7.3"/>
	<circle class="st1" cx="300" cy="31.4" r="4.1"/>
	<circle class="st1" cx="274.8" cy="21.1" r="4.1"/>
	<circle class="st1" cx="327.1" cy="51.7" r="4.1"/>
	<circle class="st1" cx="341.3" cy="62.8" r="9.7"/>
	<circle class="st1" cx="378.9" cy="65.7" r="7.3"/>
	<circle class="st1" cx="361.3" cy="58.4" r="4.1"/>
	<circle class="st1" cx="352.6" cy="76.9" r="5.3"/>
	<circle class="st1" cx="387.4" cy="78.2" r="4.1"/>
	<circle class="st1" cx="388.8" cy="91" r="5.9"/>
	<circle class="st1" cx="364.8" cy="71.6" r="5.1"/>
	<circle class="st1" cx="372" cy="85.1" r="4.1"/>
	<circle class="st1" cx="473.8" cy="133" r="7.3"/>
	<circle class="st1" cx="426.2" cy="128.8" r="4.1"/>
	<circle class="st1" cx="462.7" cy="124.7" r="4.1"/>
	<circle class="st1" cx="485.1" cy="124.9" r="4.1"/>
	<circle class="st1" cx="458.6" cy="137" r="4.1"/>
	<circle class="st1" cx="267.2" cy="28" r="2.5"/>
	<circle class="st1" cx="256.3" cy="33.4" r="5.9"/>
	<circle class="st1" cx="403.2" cy="87.9" r="2.5"/>
	<circle class="st1" cx="444.7" cy="123.2" r="9.7"/>
	<circle class="st1" cx="430.3" cy="118.3" r="2.5"/>
	<path class="st1" d="M458.8,70.9c-35.3,1-68.3,48.1-125.6,46.3c-64.1-2.1-81.1-74.1-81.1-73.9c8.4,51.8,42.4,97.8,99.1,96.9
		c58-1,96.6-48.2,119.1-44c9.7,1.8,15.1,7,19,10.5C493.4,93.1,487.1,70.1,458.8,70.9L458.8,70.9z"/>
</g>
</svg>
